<?xml version="1.0" encoding="utf-8"?>
<!-- Generator: Adobe Illustrator 21.0.2, SVG Export Plug-In . SVG Version: 6.00 Build 0)  -->
<svg version="1.1" id="Layer_1" xmlns="http://www.w3.org/2000/svg" xmlns:xlink="http://www.w3.org/1999/xlink" x="0px" y="0px"
	 viewBox="0 0 29.2 35.4" style="enable-background:new 0 0 29.2 35.4;" xml:space="preserve">
<style type="text/css">
	.st0{fill:#0B7E85;}
	.st1{fill:#EE5A29;}
</style>
<title>mobile-logo</title>
<g id="Layer_2">
	<g id="Art">
		<polygon class="st0" points="12,15 5.9,8.9 2.9,11.9 9,18 		"/>
		<polygon class="st0" points="15.8,35.4 12.6,32.3 9.6,35.4 		"/>
		<polygon class="st0" points="16.7,28.2 13.9,31 18.3,35.4 23.8,35.4 		"/>
		
			<rect x="8.9" y="20.6" transform="matrix(0.7071 -0.7071 0.7071 0.7071 -14.6153 15.0213)" class="st0" width="3.9" height="9.1"/>
		<polygon class="st0" points="3.7,23.3 0,19.6 0,27 		"/>
		<polygon class="st0" points="7.7,19.3 1.6,13.2 0,14.8 0,17.1 4.9,22.1 		"/>
		<polygon class="st0" points="13.2,13.8 20.8,6.2 14.6,0 7.1,7.6 		"/>
		<polygon class="st0" points="21,24 18,27 26.4,35.4 29.2,35.4 29.2,32.3 		"/>
		<polygon class="st0" points="11.4,31 4.9,24.6 0,29.5 0,35.4 7,35.4 		"/>
		<polygon class="st0" points="29.2,15.7 22.2,22.7 29.2,29.8 		"/>
		<polygon class="st0" points="28.4,14 22,7.5 14.5,15 21,21.5 		"/>
		
			<rect x="12.9" y="16.4" transform="matrix(0.7071 -0.7071 0.7071 0.7071 -10.4589 16.7435)" class="st1" width="4.2" height="9.1"/>
	</g>
</g>
</svg>
